<?xml version="1.0" encoding="UTF-8" standalone="no"?>
<!-- Generator: Adobe Illustrator 22.1.0, SVG Export Plug-In . SVG Version: 6.00 Build 0)  -->

<svg
   xmlns:dc="http://purl.org/dc/elements/1.1/"
   xmlns:cc="http://creativecommons.org/ns#"
   xmlns:rdf="http://www.w3.org/1999/02/22-rdf-syntax-ns#"
   xmlns:svg="http://www.w3.org/2000/svg"
   xmlns="http://www.w3.org/2000/svg"
   xmlns:sodipodi="http://sodipodi.sourceforge.net/DTD/sodipodi-0.dtd"
   xmlns:inkscape="http://www.inkscape.org/namespaces/inkscape"
   version="1.1"
   id="Layer_1_1_"
   x="0px"
   y="0px"
   viewBox="0 0 4.25 3.875"
   xml:space="preserve"
   width="34"
   height="31"
   sodipodi:docname="artificial-intelligence.svg"
   inkscape:version="0.92.4 (5da689c313, 2019-01-14)"><metadata
   id="metadata3862"><rdf:RDF><cc:Work
       rdf:about=""><dc:format>image/svg+xml</dc:format><dc:type
         rdf:resource="http://purl.org/dc/dcmitype/StillImage" /><dc:title></dc:title></cc:Work></rdf:RDF></metadata><defs
   id="defs3860" /><sodipodi:namedview
   pagecolor="#ffffff"
   bordercolor="#666666"
   borderopacity="1"
   objecttolerance="10"
   gridtolerance="10"
   guidetolerance="10"
   inkscape:pageopacity="0"
   inkscape:pageshadow="2"
   inkscape:window-width="3840"
   inkscape:window-height="2081"
   id="namedview3858"
   showgrid="false"
   inkscape:zoom="20.85965"
   inkscape:cx="11.951576"
   inkscape:cy="0.17043066"
   inkscape:window-x="-9"
   inkscape:window-y="-9"
   inkscape:window-maximized="1"
   inkscape:current-layer="Layer_1_1_" />
<linearGradient
   id="SVGID_1_"
   gradientUnits="userSpaceOnUse"
   x1="32"
   y1="63"
   x2="32"
   y2="1"
   gradientTransform="matrix(0.06854839,0,0,0.0625,-0.07527669,-0.06176413)">
	<stop
   offset="0"
   style="stop-color:#9F2FFF"
   id="stop3850" />
	<stop
   offset="1"
   style="stop-color:#0BB1D3"
   id="stop3852" />
</linearGradient>
<path
   style="fill:url(#SVGID_1_);stroke-width:0.06545436"
   d="M 2.7833282,0.82236087 2.519554,0.58186087 2.360933,0.65417337 2.304792,0.50073587 H 1.9318201 l -0.056141,0.1534375 -0.158621,-0.0723125 -0.2637742,0.2405 0.079379,0.1446875 -0.1684234,0.051125 v 0.3400625 l 0.1683549,0.051125 -0.079379,0.1446875 0.2637742,0.2405 0.158621,-0.072313 0.056141,0.1535 h 0.3729718 l 0.056141,-0.1534375 0.158621,0.072313 0.2637742,-0.2405 L 2.7038806,1.4094234 2.872304,1.3582984 V 1.0182359 L 2.7039491,0.96711087 Z M 2.7352072,1.1082984 V 1.2682359 L 2.577683,1.3161109 2.566167,1.3439234 c -0.00329,0.00794 -0.00672,0.01575 -0.010488,0.023437 l -0.013298,0.027062 0.074101,0.135125 -0.1240041,0.1130625 -0.1482016,-0.067562 -0.029681,0.012125 c -0.00857,0.0035 -0.017206,0.00656 -0.02598,0.00969 l -0.03023,0.010562 -0.05244,0.1433125 H 2.0305298 l -0.05244,-0.143375 -0.03023,-0.010563 c -0.00877,-0.00313 -0.01748,-0.00625 -0.02598,-0.00969 l -0.029682,-0.012125 -0.1482016,0.067562 -0.124004,-0.1130625 0.074101,-0.135125 -0.013298,-0.027062 c -0.00377,-0.00769 -0.0072,-0.0155 -0.010488,-0.023437 L 1.6587912,1.3160484 1.5013355,1.2681734 V 1.1082359 l 0.1575242,-0.047875 0.011516,-0.027813 c 0.00329,-0.00794 0.00672,-0.01575 0.010488,-0.023437 l 0.013298,-0.0270625 -0.074101,-0.135125 0.1240041,-0.1130625 0.1482016,0.0675625 0.029681,-0.012125 c 0.00857,-0.0035 0.017206,-0.006562 0.02598,-0.009687 l 0.03023,-0.010563 0.05244,-0.1433125 h 0.1754153 l 0.05244,0.143375 0.03023,0.0105625 c 0.00877,0.003125 0.01748,0.00625 0.02598,0.009687 l 0.029682,0.012125 0.1482016,-0.0675625 0.124004,0.1130625 -0.074101,0.135125 0.013298,0.0270625 c 0.00377,0.00769 0.0072,0.0155 0.010488,0.023437 l 0.011516,0.027813 z M 2.1182717,0.87573587 c -0.1889879,0 -0.3427419,0.14018753 -0.3427419,0.31250003 0,0.1723125 0.153754,0.3125 0.3427419,0.3125 0.1889879,0 0.3427419,-0.1401875 0.3427419,-0.3125 0,-0.1723125 -0.153754,-0.31250003 -0.3427419,-0.31250003 z m 0,0.50000003 c -0.113379,0 -0.2056452,-0.084125 -0.2056452,-0.1875 0,-0.103375 0.092266,-0.1875 0.2056452,-0.1875 0.113379,0 0.2056452,0.084125 0.2056452,0.1875 0,0.103375 -0.092266,0.1875 -0.2056452,0.1875 z m -1.3024194,0.3125 v 0.125 h 0.2741936 v 0.3125 h 0.3427419 v 0.25 h 0.1370968 v -0.25 h 0.2741936 v 0.25 h 0.1370967 v -0.25 h 0.2741936 v 0.25 h 0.1370967 v -0.25 h 0.2741936 v 0.25 h 0.1370968 v -0.25 h 0.3427419 v -0.3125 h 0.2741936 v -0.125 H 3.1464975 v -0.25 h 0.2741936 v -0.125 H 3.1464975 v -0.25 H 3.4206911 V 0.93823587 H 3.1464975 v -0.25 h 0.2741936 v -0.125 H 3.1464975 v -0.3125 H 2.8037556 V 7.3587119e-4 H 2.6666588 V 0.25073587 H 2.3924652 V 7.3587119e-4 H 2.2553685 V 0.25073587 H 1.9811749 V 7.3587119e-4 H 1.8440782 V 0.25073587 H 1.5698846 V 7.3587119e-4 H 1.4327878 V 0.25073587 h -0.028379 l -0.3143629,0.286625 v 0.025875 H 0.8158523 v 0.125 h 0.2741936 v 0.25 H 0.8158523 V 1.0632359 h 0.2741936 v 0.25 H 0.8158523 v 0.125 h 0.2741936 v 0.25 z M 1.2271427,0.58911087 1.4611669,0.37573587 H 3.0094007 V 2.0007359 h -1.782258 z m 2.7419355,0.099125 H 3.5577878 v 0.125 H 3.8319814 V 3.2507359 H 2.1868201 v -0.75 H 2.0497233 v 0.75 H 0.404562 V 0.81323587 h 0.2741936 v -0.125 H 0.2674652 V 1.0632359 h -0.2741935 v 2.5625 h 1.7891815 c 0.031806,0.1424375 0.1703427,0.25 0.3358185,0.25 0.1654758,0 0.3040121,-0.1075625 0.3358185,-0.25 h 1.7891815 v -2.5625 H 3.9690782 Z M 4.1061749,1.1882359 v 2.3125 h -1.782258 v 0.0625 c 0,0.103375 -0.092266,0.1875 -0.2056452,0.1875 -0.113379,0 -0.2056452,-0.084125 -0.2056452,-0.1875 v -0.0625 h -1.782258 v -2.3125 h 0.1370967 v 2.1875 h 3.701613 v -2.1875 z m -3.5645161,1.3125 h 1.3709677 v 0.125 H 0.5416588 Z m 1.3709677,0.375 H 0.5416588 v -0.125 h 1.3709677 z m -1.3709677,0.125 h 1.3709677 v 0.125 H 0.5416588 Z m 3.1532258,-0.375 H 2.3239169 v -0.125 h 1.3709677 z m 0,0.25 H 2.3239169 v -0.125 h 1.3709677 z m -1.3709677,0.125 h 1.3709677 v 0.125 H 2.3239169 Z"
   id="path3855"
   inkscape:connector-curvature="0" />
</svg>