<?xml version="1.0" encoding="UTF-8" standalone="no"?>
<svg
   xmlns:dc="http://purl.org/dc/elements/1.1/"
   xmlns:cc="http://creativecommons.org/ns#"
   xmlns:rdf="http://www.w3.org/1999/02/22-rdf-syntax-ns#"
   xmlns:svg="http://www.w3.org/2000/svg"
   xmlns="http://www.w3.org/2000/svg"
   xmlns:sodipodi="http://sodipodi.sourceforge.net/DTD/sodipodi-0.dtd"
   xmlns:inkscape="http://www.inkscape.org/namespaces/inkscape"
   id="Layer_5"
   enable-background="new 0 0 64 64"
   height="31"
   viewBox="0 0 4.25 3.875"
   width="34"
   version="1.1"
   sodipodi:docname="cloud-storage.svg"
   inkscape:version="0.92.4 (5da689c313, 2019-01-14)">
  <metadata
     id="metadata130">
    <rdf:RDF>
      <cc:Work
         rdf:about="">
        <dc:format>image/svg+xml</dc:format>
        <dc:type
           rdf:resource="http://purl.org/dc/dcmitype/StillImage" />
        <dc:title></dc:title>
      </cc:Work>
    </rdf:RDF>
  </metadata>
  <defs
     id="defs128" />
  <sodipodi:namedview
     pagecolor="#ffffff"
     bordercolor="#666666"
     borderopacity="1"
     objecttolerance="10"
     gridtolerance="10"
     guidetolerance="10"
     inkscape:pageopacity="0"
     inkscape:pageshadow="2"
     inkscape:window-width="3840"
     inkscape:window-height="2081"
     id="namedview126"
     showgrid="false"
     inkscape:zoom="29.5"
     inkscape:cx="41.946684"
     inkscape:cy="16.869143"
     inkscape:window-x="-9"
     inkscape:window-y="-9"
     inkscape:window-maximized="1"
     inkscape:current-layer="Layer_5" />
  <g
     id="g159"
     transform="matrix(0.06854839,0,0,0.0625,-0.06971013,-0.062917)">
    <path
       id="path71"
       d="m 43,14 c 3.94,0 7.12,3.25 7,7.22 -0.02,0.41 -0.07,0.82 -0.15,1.21 v 0.01 C 48.02,22.15 46.05,22 44,22 35.61,22 28.56,24.55 26.57,28 H 20 10 7 C 4.24,28 2,25.76 2,23 2,20.3 4.3,18 7,18 H 7.05 C 7.02,17.67 7,17.34 7,17 7,12.03 11.03,8 16,8 17.48,8 18.87,8.36 20.1,9 22,4.87 26.16,2 31,2 37.63,2 43,7.37 43,14 Z"
       inkscape:connector-curvature="0"
       style="fill:#e6e9ed" />
    <path
       id="path73"
       d="M 49,53.69 C 56.51,52.72 62,49.65 62,46 v -8 c 0,3.96 -6.49,7.25 -15,7.89 V 45 c 0,-1.657 -1.343,-3 -3,-3 -1.657,0 -3,1.343 -3,3 v 0.89 C 32.49,45.25 26,41.96 26,38 v 8 c 0,3.65 5.49,6.72 13,7.69 z"
       inkscape:connector-curvature="0"
       style="fill:#ffeaa7" />
    <path
       id="path75"
       d="M 49,53.69 H 39 C 31.49,52.72 26,49.65 26,46 v 8 c 0,4.42 8.06,8 18,8 9.94,0 18,-3.58 18,-8 v -8 c 0,3.65 -5.49,6.72 -13,7.69 z"
       inkscape:connector-curvature="0"
       style="fill:#fcd770" />
    <path
       id="path77"
       d="M 44,38 C 34.06,38 26,34.42 26,30 v 8 c 0,3.96 6.49,7.25 15,7.89 V 45 c 0,-1.657 1.343,-3 3,-3 1.657,0 3,1.343 3,3 v 0.89 C 55.51,45.25 62,41.96 62,38 v -8 c 0,4.42 -8.06,8 -18,8 z"
       inkscape:connector-curvature="0"
       style="fill:#fcd770" />
    <path
       id="path79"
       d="M 49,53.69 V 56 c 0,1.1 -0.9,2 -2,2 h -6 c -1.1,0 -2,-0.9 -2,-2 V 53.69 52 c 0,-1.1 0.9,-2 2,-2 h 6 c 1.1,0 2,0.9 2,2 z"
       inkscape:connector-curvature="0"
       style="fill:#5cd6b3" />
    <path
       id="path81"
       d="m 62,30 c 0,4.42 -8.06,8 -18,8 -9.94,0 -18,-3.58 -18,-8 0,-0.69 0.2,-1.36 0.57,-2 1.99,-3.45 9.04,-6 17.43,-6 2.05,0 4.02,0.15 5.85,0.44 C 56.92,23.51 62,26.49 62,30 Z"
       inkscape:connector-curvature="0"
       style="fill:#ffeaa7" />
    <g
       id="g95"
       style="fill:#ff826e">
      <ellipse
         id="ellipse83"
         ry="4"
         rx="10"
         cy="30"
         cx="44" />
      <circle
         id="circle85"
         r="2"
         cy="38"
         cx="12" />
      <circle
         id="circle87"
         r="2"
         cy="46"
         cx="18" />
      <circle
         id="circle89"
         r="2"
         cy="18"
         cx="33" />
      <circle
         id="circle91"
         r="2"
         cy="18"
         cx="25" />
      <circle
         id="circle93"
         r="2"
         cy="18"
         cx="17" />
    </g>
    <path
       id="path97"
       d="m 44,35 c 5.333,0 11,-1.752 11,-5 0,-3.248 -5.667,-5 -11,-5 -5.333,0 -11,1.752 -11,5 0,3.248 5.667,5 11,5 z m 0,-8 c 5.494,0 9,1.777 9,3 0,1.223 -3.506,3 -9,3 -5.494,0 -9,-1.777 -9,-3 0,-1.223 3.506,-3 9,-3 z"
       inkscape:connector-curvature="0" />
    <path
       id="path99"
       d="m 50.968,21.612 c 0.01,-0.122 0.024,-0.244 0.028,-0.367 0.066,-2.185 -0.735,-4.25 -2.254,-5.816 C 47.446,14.093 45.771,13.275 43.953,13.061 43.468,6.331 37.852,1 31,1 26.279,1 21.924,3.596 19.645,7.691 18.482,7.232 17.26,7 16,7 10.486,7 6,11.486 6,17 6,17.031 6.005,17.06 6.005,17.091 4.802,17.299 3.682,17.877 2.779,18.779 1.632,19.927 1,21.426 1,23.001 1,26.309 3.692,29 7,29 h 3 c 0.551,0 1,0.449 1,1 v 5.184 C 9.839,35.598 9,36.698 9,38 c 0,1.654 1.346,3 3,3 1.654,0 3,-1.346 3,-3 0,-1.302 -0.839,-2.402 -2,-2.816 V 30 c 0,-1.654 -1.346,-3 -3,-3 H 7 C 4.795,27 3,25.206 3,23.001 3,21.96 3.424,20.963 4.193,20.193 4.963,19.424 5.96,19 7,19 H 7.001 C 9.206,19 11,20.795 11,23 h 2 C 13,20.035 10.836,17.572 8.005,17.091 8.005,17.06 8,17.031 8,17 c 0,-4.411 3.589,-8 8,-8 1.275,0 2.502,0.298 3.647,0.886 l 0.929,0.477 0.437,-0.949 C 22.805,5.518 26.725,3 31,3 c 5.754,0 10.481,4.442 10.953,10.076 -1.711,0.223 -3.3,0.983 -4.552,2.21 L 38.8,16.715 C 39.929,15.609 41.42,15 43,15 c 1.637,0 3.166,0.647 4.306,1.822 1.14,1.174 1.74,2.724 1.691,4.364 -10e-4,0.042 -0.013,0.083 -0.015,0.125 C 47.397,21.114 45.733,21 44,21 35.58,21 28.621,23.473 26.064,27 H 20 c -1.654,0 -3,1.346 -3,3 v 13.184 c -1.161,0.414 -2,1.514 -2,2.816 0,1.654 1.346,3 3,3 1.654,0 3,-1.346 3,-3 0,-1.302 -0.839,-2.402 -2,-2.816 V 30 c 0,-0.551 0.449,-1 1,-1 h 5.117 C 25.044,29.328 25,29.661 25,30 v 24 c 0,5.047 8.346,9 19,9 10.654,0 19,-3.953 19,-9 V 30 C 63,26.126 58.073,22.904 50.968,21.612 Z M 12,39 c -0.551,0 -1,-0.449 -1,-1 0,-0.551 0.449,-1 1,-1 0.551,0 1,0.449 1,1 0,0.551 -0.449,1 -1,1 z m 6,8 c -0.551,0 -1,-0.449 -1,-1 0,-0.551 0.449,-1 1,-1 0.551,0 1,0.449 1,1 0,0.551 -0.449,1 -1,1 z M 44,23 c 10.169,0 17,3.62 17,7 0,3.38 -6.831,7 -17,7 -10.169,0 -17,-3.62 -17,-7 0,-3.38 6.831,-7 17,-7 z M 27,42.106 c 2.489,2.38 7.142,4.121 13,4.692 v 2.387 c -1.161,0.414 -2,1.514 -2,2.816 V 52.53 C 31.563,51.484 27,48.816 27,46 Z M 41,51 h 6 c 0.551,0 1,0.449 1,1 v 4 c 0,0.551 -0.449,1 -1,1 h -6 c -0.551,0 -1,-0.449 -1,-1 v -4 c 0,-0.551 0.449,-1 1,-1 z m 5,-2 h -4 v -4 c 0,-1.103 0.897,-2 2,-2 1.103,0 2,0.897 2,2 z M 44,61 C 33.831,61 27,57.38 27,54 v -3.921 c 2.194,2.097 6.073,3.718 11,4.47 V 56 c 0,1.654 1.346,3 3,3 h 6 c 1.654,0 3,-1.346 3,-3 v -1.451 c 4.927,-0.752 8.806,-2.373 11,-4.47 V 54 c 0,3.38 -6.831,7 -17,7 z m 6,-8.471 V 52 c 0,-1.302 -0.839,-2.402 -2,-2.816 v -2.387 c 5.858,-0.571 10.511,-2.311 13,-4.692 V 46 c 0,2.816 -4.563,5.484 -11,6.529 z M 47.979,44.792 C 47.868,42.685 46.134,41 44,41 41.866,41 40.132,42.685 40.021,44.792 32.641,44.024 27,41.129 27,38 V 34.064 C 30.086,37.013 36.455,39 44,39 51.545,39 57.914,37.013 61,34.064 V 38 c 0,3.129 -5.641,6.024 -13.021,6.792 z"
       inkscape:connector-curvature="0" />
    <path
       id="path101"
       d="m 53.218,39.837 0.532,1.928 c 0.685,-0.189 1.351,-0.401 1.981,-0.63 l -0.684,-1.88 c -0.58,0.212 -1.195,0.408 -1.829,0.582 z"
       inkscape:connector-curvature="0" />
    <path
       id="path103"
       d="m 56.799,38.522 0.868,1.802 c 0.677,-0.327 1.303,-0.68 1.86,-1.05 L 58.42,37.608 c -0.481,0.32 -1.026,0.627 -1.621,0.914 z"
       inkscape:connector-curvature="0" />
    <path
       id="path105"
       d="m 49.425,40.62 0.286,1.979 c 0.695,-0.101 1.372,-0.219 2.029,-0.354 l -0.402,-1.959 c -0.619,0.128 -1.257,0.239 -1.913,0.334 z"
       inkscape:connector-curvature="0" />
    <path
       id="path107"
       d="m 32.554,47.106 c -0.615,-0.238 -1.197,-0.498 -1.729,-0.771 l -0.915,1.778 c 0.595,0.306 1.242,0.595 1.922,0.858 z"
       inkscape:connector-curvature="0" />
    <path
       id="path109"
       d="m 36.239,48.197 c -0.643,-0.142 -1.272,-0.302 -1.871,-0.478 l -0.563,1.919 c 0.643,0.188 1.317,0.361 2.004,0.512 z"
       inkscape:connector-curvature="0" />
    <path
       id="path111"
       d="m 56.829,54.508 0.872,1.8 c 0.677,-0.328 1.302,-0.683 1.858,-1.055 l -1.112,-1.662 c -0.479,0.321 -1.024,0.629 -1.618,0.917 z"
       inkscape:connector-curvature="0" />
    <path
       id="path113"
       d="m 53.25,55.828 0.536,1.927 c 0.689,-0.191 1.355,-0.404 1.979,-0.632 l -0.686,-1.879 c -0.575,0.21 -1.191,0.406 -1.829,0.584 z"
       inkscape:connector-curvature="0" />
    <path
       id="path115"
       d="m 37.78,12.25 1.937,-0.499 C 38.693,7.776 35.109,5 31,5 v 2 c 3.196,0 5.984,2.159 6.78,5.25 z"
       inkscape:connector-curvature="0" />
    <path
       id="path117"
       d="m 16,11 c -2.386,0 -4.545,1.413 -5.5,3.6 l 1.833,0.801 C 12.969,13.942 14.409,13 16,13 Z"
       inkscape:connector-curvature="0" />
    <path
       id="path119"
       d="m 17,21 c 1.654,0 3,-1.346 3,-3 0,-1.654 -1.346,-3 -3,-3 -1.654,0 -3,1.346 -3,3 0,1.654 1.346,3 3,3 z m 0,-4 c 0.551,0 1,0.449 1,1 0,0.551 -0.449,1 -1,1 -0.551,0 -1,-0.449 -1,-1 0,-0.551 0.449,-1 1,-1 z"
       inkscape:connector-curvature="0" />
    <path
       id="path121"
       d="m 28,18 c 0,-1.654 -1.346,-3 -3,-3 -1.654,0 -3,1.346 -3,3 0,1.654 1.346,3 3,3 1.654,0 3,-1.346 3,-3 z m -4,0 c 0,-0.551 0.449,-1 1,-1 0.551,0 1,0.449 1,1 0,0.551 -0.449,1 -1,1 -0.551,0 -1,-0.449 -1,-1 z"
       inkscape:connector-curvature="0" />
    <path
       id="path123"
       d="m 30,18 c 0,1.654 1.346,3 3,3 1.654,0 3,-1.346 3,-3 0,-1.654 -1.346,-3 -3,-3 -1.654,0 -3,1.346 -3,3 z m 3,-1 c 0.551,0 1,0.449 1,1 0,0.551 -0.449,1 -1,1 -0.551,0 -1,-0.449 -1,-1 0,-0.551 0.449,-1 1,-1 z"
       inkscape:connector-curvature="0" />
  </g>
</svg>
