<?xml version="1.0" encoding="UTF-8" standalone="no"?>
<svg
   xmlns:dc="http://purl.org/dc/elements/1.1/"
   xmlns:cc="http://creativecommons.org/ns#"
   xmlns:rdf="http://www.w3.org/1999/02/22-rdf-syntax-ns#"
   xmlns:svg="http://www.w3.org/2000/svg"
   xmlns="http://www.w3.org/2000/svg"
   xmlns:sodipodi="http://sodipodi.sourceforge.net/DTD/sodipodi-0.dtd"
   xmlns:inkscape="http://www.inkscape.org/namespaces/inkscape"
   height="31"
   viewBox="0 0 25.500532 23.250001"
   width="34"
   version="1.1"
   id="svg18"
   sodipodi:docname="graphic.svg"
   inkscape:version="0.92.4 (5da689c313, 2019-01-14)">
  <metadata
     id="metadata24">
    <rdf:RDF>
      <cc:Work
         rdf:about="">
        <dc:format>image/svg+xml</dc:format>
        <dc:type
           rdf:resource="http://purl.org/dc/dcmitype/StillImage" />
        <dc:title></dc:title>
      </cc:Work>
    </rdf:RDF>
  </metadata>
  <defs
     id="defs22" />
  <sodipodi:namedview
     pagecolor="#ffffff"
     bordercolor="#666666"
     borderopacity="1"
     objecttolerance="10"
     gridtolerance="10"
     guidetolerance="10"
     inkscape:pageopacity="0"
     inkscape:pageshadow="2"
     inkscape:window-width="3840"
     inkscape:window-height="2081"
     id="namedview20"
     showgrid="false"
     units="px"
     inkscape:zoom="60.903226"
     inkscape:cx="17"
     inkscape:cy="15.5"
     inkscape:window-x="-9"
     inkscape:window-y="-9"
     inkscape:window-maximized="1"
     inkscape:current-layer="svg18" />
  <g
     id="g34"
     transform="matrix(0.06640628,0,0,0.06054814,0.02873465,0.00387964)">
    <path
       id="path2"
       d="m 48,272.00391 c 0,0 80,0 144,-64 -64,-64 -144,-64 -144,-64 z m 0,0"
       inkscape:connector-curvature="0"
       style="fill:#cce4ff" />
    <path
       id="path4"
       d="M 368,271.35547 V 144.65234 c -36.32813,2.34375 -125.82422,13.17579 -176,63.35157 50.17578,50.17578 139.67187,61.00781 176,63.35156 z m 0,0"
       inkscape:connector-curvature="0"
       style="fill:#cce4ff" />
    <g
       id="g16"
       style="fill:#007aff">
      <path
         id="path6"
         d="m 384,128.00391 c -5.19922,0 -121.73438,0.73437 -191.79297,58.32031 C 143.79297,143.83594 90.152344,132.28516 64,129.16406 V 0.00390625 H 32 V 320.00391 H 0 v 32 h 32 v 32 h 32 v -32 h 320 v -32 H 64 v -33.16016 c 26.152344,-3.12109 79.79297,-14.67188 128.20703,-57.16016 70.05859,57.58594 186.59375,58.32032 191.79297,58.32032 v -32 c -1.12891,0 -105.90234,-0.61719 -167.67969,-48 61.67188,-47.25782 166.5586,-48 167.6875,-48 z M 64,161.54687 c 22.566406,3.26563 65.32812,13.625 104.28906,46.45704 C 129.32812,240.83594 86.566406,251.19531 64,254.46094 Z m 0,0"
         inkscape:connector-curvature="0" />
      <path
         id="path8"
         d="m 240,0.00390625 c -31.03125,0 -57.25781,22.21484375 -62.35156,52.82421875 l -2.84766,17.097656 C 172.27344,85.035156 159.32812,96.003906 144,96.003906 h -8 v 32.000004 h 8 c 31.03125,0 57.25781,-22.21485 62.35156,-52.824222 l 2.84766,-17.09375 C 211.72656,42.972656 224.67187,32.003906 240,32.003906 Z m 0,0"
         inkscape:connector-curvature="0" />
      <path
         id="path10"
         d="m 240,64.003906 h 32 v 32 h -32 z m 0,0"
         inkscape:connector-curvature="0" />
      <path
         id="path12"
         d="m 296,64.003906 h 32 v 32 h -32 z m 0,0"
         inkscape:connector-curvature="0" />
      <path
         id="path14"
         d="m 352,64.003906 h 32 v 32 h -32 z m 0,0"
         inkscape:connector-curvature="0" />
    </g>
  </g>
</svg>
