<?xml version="1.0" encoding="UTF-8" standalone="no"?>
<svg
   xmlns:dc="http://purl.org/dc/elements/1.1/"
   xmlns:cc="http://creativecommons.org/ns#"
   xmlns:rdf="http://www.w3.org/1999/02/22-rdf-syntax-ns#"
   xmlns:svg="http://www.w3.org/2000/svg"
   xmlns="http://www.w3.org/2000/svg"
   xmlns:sodipodi="http://sodipodi.sourceforge.net/DTD/sodipodi-0.dtd"
   xmlns:inkscape="http://www.inkscape.org/namespaces/inkscape"
   id="Layer_1"
   enable-background="new 0 0 256 256"
   height="31"
   viewBox="0 0 17 15.5"
   width="34"
   version="1.1"
   sodipodi:docname="seminar.svg"
   inkscape:version="0.92.4 (5da689c313, 2019-01-14)">
  <metadata
     id="metadata309">
    <rdf:RDF>
      <cc:Work
         rdf:about="">
        <dc:format>image/svg+xml</dc:format>
        <dc:type
           rdf:resource="http://purl.org/dc/dcmitype/StillImage" />
        <dc:title></dc:title>
      </cc:Work>
    </rdf:RDF>
  </metadata>
  <defs
     id="defs307" />
  <sodipodi:namedview
     pagecolor="#ffffff"
     bordercolor="#666666"
     borderopacity="1"
     objecttolerance="10"
     gridtolerance="10"
     guidetolerance="10"
     inkscape:pageopacity="0"
     inkscape:pageshadow="2"
     inkscape:window-width="3840"
     inkscape:window-height="2081"
     id="namedview305"
     showgrid="false"
     inkscape:zoom="60.903226"
     inkscape:cx="17"
     inkscape:cy="15.5"
     inkscape:window-x="-9"
     inkscape:window-y="-9"
     inkscape:window-maximized="1"
     inkscape:current-layer="Layer_1" />
  <g
     id="g377"
     transform="matrix(0.06960082,0,0,0.06352459,-0.40853712,-0.37860744)">
    <path
       id="path172"
       d="M 223.584,18.798 H 72.416 v 100.337 c 0,4.418 3.582,8 8,8 h 135.167 c 4.418,0 8,-3.582 8,-8 V 18.798 Z"
       inkscape:connector-curvature="0"
       style="fill:#6bdddd" />
    <path
       id="path174"
       d="M 81.054,114.496 V 18.798 h 133.891 v 95.699 c 0,2.209 -1.791,4 -4,4 H 85.054 c -2.209,-0.001 -4,-1.792 -4,-4.001 z"
       inkscape:connector-curvature="0"
       style="fill:#e0ebfc" />
    <path
       id="path176"
       d="M 134.789,95.844 H 93 c -1.381,0 -2.5,-1.119 -2.5,-2.5 0,-1.381 1.119,-2.5 2.5,-2.5 h 41.789 c 1.381,0 2.5,1.119 2.5,2.5 0,1.381 -1.119,2.5 -2.5,2.5 z"
       inkscape:connector-curvature="0"
       style="fill:#b9befc" />
    <path
       id="path178"
       d="M 134.789,105.844 H 93 c -1.381,0 -2.5,-1.119 -2.5,-2.5 0,-1.381 1.119,-2.5 2.5,-2.5 h 41.789 c 1.381,0 2.5,1.119 2.5,2.5 0,1.381 -1.119,2.5 -2.5,2.5 z"
       inkscape:connector-curvature="0"
       style="fill:#b9befc" />
    <path
       id="path180"
       d="m 117.973,31.157 c -12.383,0 -22.421,10.038 -22.421,22.421 0,12.383 10.038,22.422 22.421,22.422 12.383,0 22.421,-10.038 22.421,-22.421 h -22.421 z"
       inkscape:connector-curvature="0"
       style="fill:#f9a7a7" />
    <path
       id="path182"
       d="M 123.579,25.552 V 47.973 H 146 C 146,35.59 135.962,25.552 123.579,25.552 Z"
       inkscape:connector-curvature="0"
       style="fill:#a4c9ff" />
    <path
       id="path184"
       d="M 231.021,18.798 H 64.979 c -1.657,0 -3,-1.343 -3,-3 V 11 c 0,-1.657 1.343,-3 3,-3 h 166.043 c 1.657,0 3,1.343 3,3 v 4.798 c -0.001,1.657 -1.344,3 -3.001,3 z"
       inkscape:connector-curvature="0"
       style="fill:#4671c6" />
    <path
       id="path186"
       d="m 148,143.134 c -3.314,0 -6,-2.686 -6,-6 v -10 h 12 v 10 c 0,3.314 -2.686,6 -6,6 z"
       inkscape:connector-curvature="0"
       style="fill:#f9a7a7" />
    <path
       id="path188"
       d="M 159.151,109.167 H 148 c -1.105,0 -2,-0.895 -2,-2 V 89.521 c 0,-1.105 0.895,-2 2,-2 h 11.151 c 1.105,0 2,0.895 2,2 v 17.645 c 0,1.105 -0.896,2.001 -2,2.001 z"
       inkscape:connector-curvature="0"
       style="fill:#f9a7a7" />
    <path
       id="path190"
       d="m 181.575,109.167 h -11.151 c -1.105,0 -2,-0.895 -2,-2 V 78.091 c 0,-1.105 0.895,-2 2,-2 h 11.151 c 1.105,0 2,0.895 2,2 v 29.076 c 0,1.104 -0.895,2 -2,2 z"
       inkscape:connector-curvature="0"
       style="fill:#ffea92" />
    <path
       id="path192"
       d="m 204,109.167 h -11.151 c -1.105,0 -2,-0.895 -2,-2 V 64 c 0,-1.105 0.895,-2 2,-2 H 204 c 1.105,0 2,0.895 2,2 v 43.167 c 0,1.104 -0.895,2 -2,2 z"
       inkscape:connector-curvature="0"
       style="fill:#a4c9ff" />
    <path
       id="path194"
       d="m 132.667,41.667 c -0.769,0 -1.502,-0.446 -1.832,-1.195 -0.445,-1.011 0.014,-2.191 1.025,-2.636 l 19.333,-8.509 c 0.254,-0.112 0.528,-0.169 0.806,-0.169 h 14 c 1.104,0 2,0.896 2,2 0,1.104 -0.896,2 -2,2 H 152.42 l -18.949,8.34 c -0.261,0.114 -0.534,0.169 -0.804,0.169 z"
       inkscape:connector-curvature="0"
       style="fill:#3762cc" />
    <g
       id="g202"
       style="fill:#b9befc">
      <path
         id="path196"
         d="m 206,33.657 h -30 c -1.381,0 -2.5,-1.119 -2.5,-2.5 0,-1.381 1.119,-2.5 2.5,-2.5 h 30 c 1.381,0 2.5,1.119 2.5,2.5 0,1.381 -1.119,2.5 -2.5,2.5 z"
         inkscape:connector-curvature="0" />
      <path
         id="path198"
         d="m 206,43.657 h -30 c -1.381,0 -2.5,-1.119 -2.5,-2.5 0,-1.381 1.119,-2.5 2.5,-2.5 h 30 c 1.381,0 2.5,1.119 2.5,2.5 0,1.381 -1.119,2.5 -2.5,2.5 z"
         inkscape:connector-curvature="0" />
      <path
         id="path200"
         d="m 206,53.657 h -30 c -1.381,0 -2.5,-1.119 -2.5,-2.5 0,-1.381 1.119,-2.5 2.5,-2.5 h 30 c 1.381,0 2.5,1.119 2.5,2.5 0,1.381 -1.119,2.5 -2.5,2.5 z"
         inkscape:connector-curvature="0" />
    </g>
    <path
       id="path204"
       d="M 215.583,129.134 H 80.417 c -5.514,0 -10,-4.486 -10,-10 V 18.798 c 0,-1.104 0.896,-2 2,-2 h 151.167 c 1.104,0 2,0.896 2,2 v 100.336 c -0.001,5.514 -4.486,10 -10.001,10 z M 74.417,20.798 v 98.336 c 0,3.309 2.691,6 6,6 h 135.167 c 3.309,0 6,-2.691 6,-6 V 20.798 Z"
       inkscape:connector-curvature="0"
       style="fill:#3762cc" />
    <path
       id="path206"
       d="M 231.021,20.798 H 64.979 c -2.757,0 -5,-2.243 -5,-5 V 11 c 0,-2.757 2.243,-5 5,-5 h 166.043 c 2.757,0 5,2.243 5,5 v 4.798 c -0.001,2.757 -2.244,5 -5.001,5 z M 64.979,10 c -0.551,0 -1,0.449 -1,1 v 4.798 c 0,0.551 0.449,1 1,1 h 166.043 c 0.551,0 1,-0.449 1,-1 V 11 c 0,-0.551 -0.449,-1 -1,-1 z"
       inkscape:connector-curvature="0"
       style="fill:#3762cc" />
    <path
       id="path208"
       d="m 148,145.134 c -4.411,0 -8,-3.589 -8,-8 v -10 c 0,-1.104 0.896,-2 2,-2 h 12 c 1.104,0 2,0.896 2,2 v 10 c 0,4.411 -3.589,8 -8,8 z m -4,-16 v 8 c 0,2.206 1.794,4 4,4 2.206,0 4,-1.794 4,-4 v -8 z"
       inkscape:connector-curvature="0"
       style="fill:#3762cc" />
    <path
       id="path210"
       d="m 66.963,118.2 h -3.418 c -0.008,0 -0.015,-0.001 -0.022,-0.001 L 63.522,118.2 H 41.037 c -5.94,0 -10.755,4.815 -10.755,10.755 v 5.395 1.532 2.837 10.193 h 0.502 5.82 41.115 v -10.193 -2.837 -1.532 -5.395 C 77.718,123.016 72.903,118.2 66.963,118.2 Z"
       inkscape:connector-curvature="0"
       style="fill:#e0ebfc" />
    <path
       id="path212"
       d="m 75.223,87.573 c -0.045,0 -0.089,0.006 -0.133,0.007 v -1.975 c 0,-11.542 -9.442,-20.899 -21.089,-20.899 -11.647,0 -21.089,9.357 -21.089,20.899 v 1.975 c -0.045,-0.001 -0.088,-0.007 -0.133,-0.007 -3.553,0 -6.434,2.855 -6.434,6.376 0,3.521 2.881,6.376 6.434,6.376 0.233,0 0.463,-0.014 0.69,-0.038 2.176,9.246 10.54,16.135 20.532,16.135 9.993,0 18.356,-6.89 20.532,-16.135 0.227,0.024 0.457,0.038 0.69,0.038 3.553,0 6.434,-2.855 6.434,-6.376 0,-3.522 -2.881,-6.376 -6.434,-6.376 z"
       inkscape:connector-curvature="0"
       style="fill:#f9cfcf" />
    <path
       id="path214"
       d="m 43.52,97.875 c -1.404,0 -2.546,-1.142 -2.546,-2.546 v -4.243 c 0,-1.404 1.142,-2.546 2.546,-2.546 1.404,0 2.546,1.142 2.546,2.546 v 4.243 c 0,1.404 -1.142,2.546 -2.546,2.546 z"
       inkscape:connector-curvature="0"
       style="fill:#3762cc" />
    <path
       id="path216"
       d="m 64.38,97.875 c -1.404,0 -2.546,-1.142 -2.546,-2.546 v -4.243 c 0,-1.404 1.142,-2.546 2.546,-2.546 1.404,0 2.546,1.142 2.546,2.546 v 4.243 c 0,1.404 -1.142,2.546 -2.546,2.546 z"
       inkscape:connector-curvature="0"
       style="fill:#3762cc" />
    <path
       id="path218"
       d="m 54,118.422 c -10.246,0 -19.1,-6.56 -22.061,-16.139 -4.259,-0.419 -7.596,-3.997 -7.596,-8.335 0,-3.982 2.812,-7.323 6.567,-8.169 v -0.174 c 0,-12.627 10.358,-22.899 23.089,-22.899 12.731,0 23.089,10.272 23.089,22.899 v 0.174 c 3.755,0.846 6.567,4.188 6.567,8.169 0,4.338 -3.337,7.916 -7.596,8.335 C 73.1,111.862 64.246,118.422 54,118.422 Z M 33.469,98.287 c 0.918,0 1.731,0.631 1.945,1.542 2.022,8.592 9.665,14.593 18.585,14.593 8.92,0 16.563,-6.001 18.585,-14.593 0.231,-0.98 1.155,-1.636 2.156,-1.531 0.158,0.017 0.318,0.026 0.481,0.026 2.445,0 4.434,-1.963 4.434,-4.376 0,-2.4 -1.968,-4.355 -4.396,-4.376 -0.075,0.005 -0.136,0.007 -0.172,0.007 -0.522,0 -1.024,-0.205 -1.399,-0.57 -0.384,-0.376 -0.601,-0.892 -0.601,-1.43 v -1.975 c 0,-10.421 -8.563,-18.899 -19.089,-18.899 -10.526,0 -19.089,8.478 -19.089,18.899 v 1.975 c 0,0.538 -0.217,1.053 -0.601,1.43 -0.385,0.376 -0.921,0.589 -1.442,0.57 -0.034,0 -0.128,-0.006 -0.162,-0.008 -2.373,0.002 -4.362,1.965 -4.362,4.378 0,2.413 1.989,4.376 4.434,4.376 0.163,0 0.323,-0.01 0.481,-0.026 0.072,-0.008 0.142,-0.012 0.212,-0.012 z"
       inkscape:connector-curvature="0"
       style="fill:#3762cc" />
    <path
       id="path220"
       d="m 54,116.422 c -3.446,0 -6.698,-0.82 -9.57,-2.273 v 3.652 c 0,5.284 4.283,9.567 9.567,9.567 5.284,0 9.567,-4.283 9.567,-9.567 v -3.65 c -2.87,1.453 -6.12,2.271 -9.564,2.271 z"
       inkscape:connector-curvature="0"
       style="fill:#f9cfcf" />
    <path
       id="path222"
       d="m 53.959,122.556 -4.308,4.333 1.471,4.823 h 2.837 0.045 2.837 l 1.471,-4.823 -4.308,-4.333 z"
       inkscape:connector-curvature="0"
       style="fill:#f9a7a7" />
    <path
       id="path224"
       d="m 56.841,133.712 h -5.719 c -0.88,0 -1.656,-0.575 -1.913,-1.417 l -1.472,-4.823 c -0.215,-0.705 -0.025,-1.471 0.495,-1.994 l 4.309,-4.333 c 0.375,-0.377 0.886,-0.59 1.418,-0.59 h 0.044 c 0.532,0 1.043,0.212 1.418,0.59 l 4.309,4.333 c 0.52,0.522 0.71,1.289 0.495,1.994 l -1.472,4.823 c -0.256,0.843 -1.032,1.417 -1.912,1.417 z m -4.238,-4 h 2.757 l 0.69,-2.262 -2.069,-2.081 -2.069,2.081 z"
       inkscape:connector-curvature="0"
       style="fill:#3762cc" />
    <path
       id="path226"
       d="m 59.01,148.914 -2.184,-17.202 h -5.688 l -2.185,17.202 z"
       inkscape:connector-curvature="0"
       style="fill:#f9a7a7" />
    <path
       id="path228"
       d="M 77.718,150.914 H 30.282 c -1.104,0 -2,-0.896 -2,-2 v -19.958 c 0,-7.033 5.722,-12.755 12.755,-12.755 h 1.393 v -2.051 c 0,-0.695 0.361,-1.34 0.953,-1.704 0.592,-0.365 1.33,-0.396 1.95,-0.081 2.698,1.365 5.614,2.057 8.667,2.057 3.051,0 5.965,-0.691 8.662,-2.055 0.621,-0.314 1.358,-0.283 1.95,0.082 0.592,0.364 0.952,1.009 0.952,1.704 v 2.048 h 1.399 c 7.033,0 12.755,5.722 12.755,12.755 v 19.958 c 0,1.105 -0.895,2 -2,2 z m -45.436,-4 h 43.437 v -17.958 c 0,-4.828 -3.928,-8.755 -8.755,-8.755 h -3.418 c -0.543,0 -1.063,-0.221 -1.44,-0.612 -0.377,-0.391 -0.579,-0.918 -0.559,-1.461 l 0.018,-0.96 c -4.835,1.668 -10.3,1.668 -15.134,-0.002 l 0.019,0.948 c 0.024,0.545 -0.176,1.077 -0.553,1.471 -0.377,0.394 -0.899,0.617 -1.445,0.617 h -3.414 c -4.828,0 -8.755,3.928 -8.755,8.755 v 17.957 z"
       inkscape:connector-curvature="0"
       style="fill:#3762cc" />
    <path
       id="path230"
       d="m 54,122.556 -2.96,5.576 c -0.27,0.508 -0.965,0.585 -1.34,0.149 l -8.271,-9.624 c -0.233,-0.272 -0.263,-0.663 -0.072,-0.966 l 0.91,-1.448 c 0.285,-0.453 0.782,-0.727 1.316,-0.727 h 0.846 z"
       inkscape:connector-curvature="0"
       style="fill:#e0ebfc" />
    <path
       id="path232"
       d="m 50.318,130.566 c -0.815,0 -1.596,-0.354 -2.134,-0.98 l -8.271,-9.625 c -0.81,-0.942 -0.91,-2.283 -0.248,-3.335 l 0.91,-1.447 c 0.655,-1.042 1.78,-1.663 3.01,-1.663 h 0.846 c 0.426,0 0.842,0.136 1.185,0.389 l 9.57,7.041 c 0.799,0.588 1.046,1.672 0.582,2.548 l -2.959,5.576 c -0.437,0.823 -1.25,1.375 -2.175,1.479 -0.107,0.012 -0.212,0.017 -0.316,0.017 z m -6.802,-12.55 6.571,7.647 1.337,-2.519 -7.612,-5.6 z"
       inkscape:connector-curvature="0"
       style="fill:#3762cc" />
    <path
       id="path234"
       d="m 53.963,122.556 2.96,5.576 c 0.27,0.508 0.965,0.585 1.34,0.149 l 8.271,-9.624 c 0.233,-0.272 0.263,-0.663 0.072,-0.966 l -0.91,-1.448 c -0.285,-0.453 -0.782,-0.727 -1.316,-0.727 h -0.846 z"
       inkscape:connector-curvature="0"
       style="fill:#e0ebfc" />
    <path
       id="path236"
       d="m 57.645,130.566 c -0.104,0 -0.208,-0.005 -0.313,-0.017 -0.926,-0.103 -1.739,-0.656 -2.176,-1.479 l -2.959,-5.576 c -0.465,-0.876 -0.218,-1.96 0.582,-2.548 l 9.57,-7.041 c 0.343,-0.253 0.759,-0.389 1.185,-0.389 h 0.846 c 1.23,0 2.355,0.622 3.009,1.662 l 0.911,1.449 c 0.662,1.051 0.562,2.392 -0.249,3.334 l -8.271,9.625 c -0.539,0.626 -1.32,0.98 -2.135,0.98 z m -1.106,-7.422 1.337,2.519 6.572,-7.647 -0.297,-0.472 z"
       inkscape:connector-curvature="0"
       style="fill:#3762cc" />
    <path
       id="path238"
       d="M 59.01,150.914 H 48.953 c -0.574,0 -1.121,-0.247 -1.5,-0.678 -0.38,-0.431 -0.556,-1.004 -0.483,-1.574 l 2.185,-17.202 c 0.126,-0.999 0.977,-1.748 1.984,-1.748 h 5.688 c 1.007,0 1.857,0.749 1.984,1.748 l 2.184,17.202 c 0.073,0.57 -0.104,1.143 -0.483,1.574 -0.381,0.431 -0.928,0.678 -1.502,0.678 z m -7.787,-4 H 56.74 L 55.064,133.712 H 52.9 Z"
       inkscape:connector-curvature="0"
       style="fill:#3762cc" />
    <path
       id="path240"
       d="m 54,118.422 c -10.246,0 -19.1,-6.56 -22.061,-16.139 -4.259,-0.419 -7.596,-3.997 -7.596,-8.335 0,-3.982 2.812,-7.323 6.567,-8.169 v -0.174 c 0,-12.627 10.358,-22.899 23.089,-22.899 12.731,0 23.089,10.272 23.089,22.899 v 0.174 c 3.755,0.846 6.567,4.188 6.567,8.169 0,4.338 -3.337,7.916 -7.596,8.335 C 73.1,111.862 64.246,118.422 54,118.422 Z M 33.469,98.287 c 0.918,0 1.731,0.631 1.945,1.542 2.022,8.592 9.665,14.593 18.585,14.593 8.92,0 16.563,-6.001 18.585,-14.593 0.231,-0.98 1.155,-1.636 2.156,-1.531 0.158,0.017 0.318,0.026 0.481,0.026 2.445,0 4.434,-1.963 4.434,-4.376 0,-2.4 -1.968,-4.355 -4.396,-4.376 -0.075,0.005 -0.136,0.007 -0.172,0.007 -0.522,0 -1.024,-0.205 -1.399,-0.57 -0.384,-0.376 -0.601,-0.892 -0.601,-1.43 v -1.975 c 0,-10.421 -8.563,-18.899 -19.089,-18.899 -10.526,0 -19.089,8.478 -19.089,18.899 v 1.975 c 0,0.538 -0.217,1.053 -0.601,1.43 -0.385,0.376 -0.921,0.589 -1.442,0.57 -0.034,0 -0.128,-0.006 -0.162,-0.008 -2.373,0.002 -4.362,1.965 -4.362,4.378 0,2.413 1.989,4.376 4.434,4.376 0.163,0 0.323,-0.01 0.481,-0.026 0.072,-0.008 0.142,-0.012 0.212,-0.012 z"
       inkscape:connector-curvature="0"
       style="fill:#3762cc" />
    <path
       id="path242"
       d="M 13.724,153.504 H 94.201 V 248 H 13.724 Z"
       inkscape:connector-curvature="0"
       style="fill:#a4c9ff" />
    <path
       id="path244"
       d="M 98.161,153.504 H 9.839 C 8.823,153.504 8,152.681 8,151.665 v -12.51 c 0,-1.016 0.823,-1.839 1.839,-1.839 h 88.322 c 1.016,0 1.839,0.823 1.839,1.839 v 12.51 c 0,1.016 -0.823,1.839 -1.839,1.839 z"
       inkscape:connector-curvature="0"
       style="fill:#a4c9ff" />
    <path
       id="path246"
       d="M 186.233,248 H 132 v -10.698 c 0,-11.661 9.453,-21.114 21.114,-21.114 h 12.006 c 11.661,0 21.114,9.453 21.114,21.114 V 248 Z"
       inkscape:connector-curvature="0"
       style="fill:#6bdddd" />
    <path
       id="path248"
       d="m 159.117,216.189 c -11.781,0 -21.332,-9.55 -21.332,-21.331 v -6.32 c 0,-11.781 9.55,-21.331 21.331,-21.331 11.781,0 21.331,9.55 21.331,21.331 v 6.32 c 0.001,11.781 -9.549,21.331 -21.33,21.331 z"
       inkscape:connector-curvature="0"
       style="fill:#4671c6" />
    <path
       id="path250"
       d="m 159.117,218.189 c -12.865,0 -23.332,-10.466 -23.332,-23.332 v -6.32 c 0,-12.865 10.466,-23.332 23.332,-23.332 12.866,0 23.332,10.466 23.332,23.332 v 6.32 c -0.001,12.866 -10.467,23.332 -23.332,23.332 z m 0,-48.983 c -10.66,0 -19.332,8.672 -19.332,19.332 v 6.32 c 0,10.66 8.672,19.332 19.332,19.332 10.66,0 19.332,-8.672 19.332,-19.332 v -6.32 c -0.001,-10.661 -8.673,-19.332 -19.332,-19.332 z"
       inkscape:connector-curvature="0"
       style="fill:#3762cc" />
    <path
       id="path252"
       d="M 186.233,250 H 132 c -1.104,0 -2,-0.896 -2,-2 v -10.698 c 0,-12.745 10.369,-23.113 23.114,-23.113 h 12.006 c 12.745,0 23.114,10.369 23.114,23.113 V 248 c -0.001,1.104 -0.896,2 -2.001,2 z M 134,246 h 50.233 v -8.698 c 0,-10.539 -8.574,-19.113 -19.114,-19.113 h -12.006 c -10.54,0 -19.114,8.574 -19.114,19.113 V 246 Z"
       inkscape:connector-curvature="0"
       style="fill:#3762cc" />
    <path
       id="path254"
       d="m 248.252,248 h -54.233 v -10.698 c 0,-11.661 9.453,-21.114 21.114,-21.114 h 12.006 c 11.661,0 21.114,9.453 21.114,21.114 V 248 Z"
       inkscape:connector-curvature="0"
       style="fill:#f9a7a7" />
    <path
       id="path256"
       d="m 221.135,216.189 c -11.781,0 -21.332,-9.55 -21.332,-21.331 v -6.32 c 0,-11.781 9.55,-21.331 21.331,-21.331 11.781,0 21.331,9.55 21.331,21.331 v 6.32 c 0.002,11.781 -9.549,21.331 -21.33,21.331 z"
       inkscape:connector-curvature="0"
       style="fill:#4671c6" />
    <path
       id="path258"
       d="m 221.135,218.189 c -12.865,0 -23.332,-10.466 -23.332,-23.332 v -6.32 c 0,-12.865 10.466,-23.332 23.332,-23.332 12.865,0 23.331,10.466 23.331,23.332 v 6.32 c 0,12.866 -10.466,23.332 -23.331,23.332 z m 0,-48.983 c -10.66,0 -19.332,8.672 -19.332,19.332 v 6.32 c 0,10.66 8.672,19.332 19.332,19.332 10.659,0 19.331,-8.672 19.331,-19.332 v -6.32 c 0,-10.661 -8.672,-19.332 -19.331,-19.332 z"
       inkscape:connector-curvature="0"
       style="fill:#3762cc" />
    <path
       id="path260"
       d="m 248.251,250 h -54.233 c -1.104,0 -2,-0.896 -2,-2 v -10.698 c 0,-12.745 10.369,-23.113 23.113,-23.113 h 12.006 c 12.745,0 23.113,10.369 23.113,23.113 V 248 c 0.001,1.104 -0.894,2 -1.999,2 z m -52.232,-4 h 50.233 v -8.698 c 0,-10.539 -8.574,-19.113 -19.113,-19.113 h -12.006 c -10.539,0 -19.113,8.574 -19.113,19.113 V 246 Z"
       inkscape:connector-curvature="0"
       style="fill:#3762cc" />
    <path
       id="path262"
       d="m 54.492,106.833 c 0.752,0 1.51,-0.137 2.177,-0.484 0.582,-0.303 1.1,-0.728 1.51,-1.257 0.332,-0.428 0.582,-0.907 0.742,-1.413 0.211,-0.667 -0.264,-1.351 -0.963,-1.351 h -7.294 c -1.325,0 -1.799,0.684 -1.589,1.351 0.16,0.507 0.41,0.986 0.742,1.413 0.41,0.529 0.928,0.954 1.51,1.257 0.667,0.347 1.425,0.484 2.177,0.484 z"
       inkscape:connector-curvature="0"
       style="fill:#f9a7a7" />
    <path
       id="path264"
       d="m 54.492,107.833 h -0.987 c -0.989,0 -1.877,-0.201 -2.639,-0.597 -0.725,-0.378 -1.343,-0.893 -1.838,-1.531 -0.405,-0.521 -0.709,-1.102 -0.906,-1.726 -0.188,-0.594 -0.091,-1.214 0.265,-1.701 0.26,-0.355 0.901,-0.95 2.277,-0.95 h 7.294 c 0.647,0 1.237,0.299 1.619,0.819 0.384,0.523 0.495,1.208 0.298,1.833 -0.197,0.625 -0.502,1.205 -0.906,1.726 -0.496,0.639 -1.114,1.154 -1.838,1.531 -0.762,0.395 -1.65,0.596 -2.639,0.596 z m -4.444,-4.401 c 0.127,0.381 0.315,0.731 0.561,1.047 0.317,0.409 0.715,0.74 1.182,0.983 0.474,0.246 1.051,0.371 1.715,0.371 h 0.987 c 0.665,0 1.242,-0.125 1.716,-0.372 0.466,-0.243 0.864,-0.573 1.181,-0.982 0.259,-0.333 0.454,-0.704 0.579,-1.102 l -7.304,-0.05 c -0.335,0.001 -0.529,0.061 -0.617,0.105 z"
       inkscape:connector-curvature="0"
       style="fill:#3762cc" />
    <path
       id="path266"
       d="M 94.202,250 H 13.725 c -1.104,0 -2,-0.896 -2,-2 v -94.496 c 0,-1.104 0.896,-2 2,-2 h 80.477 c 1.104,0 2,0.896 2,2 V 248 c 0,1.104 -0.896,2 -2,2 z M 15.725,246 H 92.202 V 155.504 H 15.725 Z"
       inkscape:connector-curvature="0"
       style="fill:#3762cc" />
    <path
       id="path268"
       d="M 98.161,155.504 H 9.839 C 7.722,155.504 6,153.782 6,151.665 v -12.51 c 0,-2.117 1.722,-3.839 3.839,-3.839 h 88.322 c 2.117,0 3.839,1.722 3.839,3.839 v 12.51 c 0,2.117 -1.722,3.839 -3.839,3.839 z M 10,151.504 H 98 V 139.316 H 10 Z"
       inkscape:connector-curvature="0"
       style="fill:#3762cc" />
    <path
       id="path270"
       d="M 62.233,248 H 8 v -10.698 c 0,-11.661 9.453,-21.114 21.114,-21.114 H 41.12 c 11.661,0 21.114,9.453 21.114,21.114 V 248 Z"
       inkscape:connector-curvature="0"
       style="fill:#6bdddd" />
    <path
       id="path272"
       d="m 35.117,216.189 c -11.781,0 -21.332,-9.55 -21.332,-21.331 v -6.32 c 0,-11.781 9.55,-21.331 21.331,-21.331 11.781,0 21.331,9.55 21.331,21.331 v 6.32 c 10e-4,11.781 -9.549,21.331 -21.33,21.331 z"
       inkscape:connector-curvature="0"
       style="fill:#4671c6" />
    <path
       id="path274"
       d="m 35.117,218.189 c -12.865,0 -23.332,-10.466 -23.332,-23.332 v -6.32 c 0,-12.865 10.466,-23.332 23.332,-23.332 12.866,0 23.332,10.466 23.332,23.332 v 6.32 c -10e-4,12.866 -10.467,23.332 -23.332,23.332 z m 0,-48.983 c -10.66,0 -19.332,8.672 -19.332,19.332 v 6.32 c 0,10.66 8.672,19.332 19.332,19.332 10.66,0 19.332,-8.672 19.332,-19.332 v -6.32 C 54.448,177.877 45.776,169.206 35.117,169.206 Z"
       inkscape:connector-curvature="0"
       style="fill:#3762cc" />
    <path
       id="path276"
       d="M 62.233,250 H 8 c -1.104,0 -2,-0.896 -2,-2 V 237.302 C 6,224.557 16.369,214.189 29.114,214.189 H 41.12 c 12.745,0 23.114,10.369 23.114,23.113 V 248 c -10e-4,1.104 -0.896,2 -2.001,2 z M 10,246 h 50.233 v -8.698 c 0,-10.539 -8.574,-19.113 -19.114,-19.113 H 29.114 C 18.574,218.189 10,226.763 10,237.302 Z"
       inkscape:connector-curvature="0"
       style="fill:#3762cc" />
    <path
       id="path278"
       d="M 124,248 H 69.767 v -10.698 c 0,-11.661 9.453,-21.114 21.114,-21.114 h 12.006 c 11.661,0 21.114,9.453 21.114,21.114 V 248 Z"
       inkscape:connector-curvature="0"
       style="fill:#ffffff" />
    <path
       id="path280"
       d="m 96.883,216.189 c -11.781,0 -21.332,-9.55 -21.332,-21.331 v -6.32 c 0,-11.781 9.55,-21.331 21.331,-21.331 11.781,0 21.331,9.55 21.331,21.331 v 6.32 c 0.002,11.781 -9.549,21.331 -21.33,21.331 z"
       inkscape:connector-curvature="0"
       style="fill:#4671c6" />
    <path
       id="path282"
       d="m 96.883,218.189 c -12.865,0 -23.332,-10.466 -23.332,-23.332 v -6.32 c 0,-12.865 10.466,-23.332 23.332,-23.332 12.866,0 23.332,10.466 23.332,23.332 v 6.32 c 0,12.866 -10.466,23.332 -23.332,23.332 z m 0,-48.983 c -10.66,0 -19.332,8.672 -19.332,19.332 v 6.32 c 0,10.66 8.672,19.332 19.332,19.332 10.66,0 19.332,-8.672 19.332,-19.332 v -6.32 c 0,-10.661 -8.672,-19.332 -19.332,-19.332 z"
       inkscape:connector-curvature="0"
       style="fill:#3762cc" />
    <path
       id="path284"
       d="M 124,248 H 69.767 v -10.698 c 0,-11.661 9.453,-21.114 21.114,-21.114 h 12.006 c 11.661,0 21.114,9.453 21.114,21.114 V 248 Z"
       inkscape:connector-curvature="0"
       style="fill:#f9a7a7" />
    <path
       id="path286"
       d="M 124,250 H 69.767 c -1.104,0 -2,-0.896 -2,-2 v -10.698 c 0,-12.745 10.369,-23.113 23.114,-23.113 h 12.006 c 12.745,0 23.114,10.369 23.114,23.113 V 248 c -0.001,1.104 -0.897,2 -2.001,2 z M 71.767,246 H 122 v -8.698 c 0,-10.539 -8.574,-19.113 -19.114,-19.113 H 90.88 c -10.54,0 -19.114,8.574 -19.114,19.113 V 246 Z"
       inkscape:connector-curvature="0"
       style="fill:#3762cc" />
    <path
       id="path288"
       d="m 22.011,120.447 c -2.907,-1.678 -3.903,-5.395 -2.224,-8.301 l 2.613,-4.525 c 1.678,-2.907 5.395,-3.902 8.301,-2.224 2.907,1.678 3.902,5.395 2.224,8.301 l -2.613,4.525 c -1.678,2.906 -5.394,3.902 -8.301,2.224 z"
       inkscape:connector-curvature="0"
       style="fill:#4671c6" />
    <path
       id="path290"
       d="m 16.6,125.953 3.497,-7.255 c 0.491,0.693 1.13,1.297 1.914,1.749 0.855,0.493 1.78,0.75 2.702,0.8 l -3.109,6.45 v 9.619 h -5.265 v -10.22 c 0,-0.396 0.09,-0.786 0.261,-1.143 z"
       inkscape:connector-curvature="0"
       style="fill:#e0ebfc" />
    <path
       id="path292"
       d="m 25.037,123.265 c -1.399,0 -2.781,-0.367 -4.025,-1.086 -1.869,-1.079 -3.205,-2.82 -3.764,-4.904 -0.558,-2.084 -0.272,-4.261 0.807,-6.129 l 2.613,-4.525 c 2.226,-3.856 7.175,-5.184 11.033,-2.956 3.856,2.227 5.183,7.176 2.957,11.033 l -2.613,4.525 c -1.079,1.869 -2.82,3.205 -4.904,3.764 -0.697,0.185 -1.403,0.278 -2.104,0.278 z m 2.631,-16.685 c -0.354,0 -0.71,0.046 -1.062,0.141 -1.052,0.282 -1.931,0.956 -2.476,1.899 l -2.613,4.525 c -0.544,0.943 -0.689,2.042 -0.407,3.093 0.282,1.052 0.957,1.931 1.9,2.476 0.943,0.544 2.042,0.69 3.094,0.407 1.052,-0.282 1.931,-0.957 2.476,-1.9 l 2.613,-4.525 c 1.124,-1.947 0.454,-4.445 -1.493,-5.569 -0.628,-0.362 -1.325,-0.547 -2.032,-0.547 z"
       inkscape:connector-curvature="0"
       style="fill:#3762cc" />
    <path
       id="path294"
       d="m 21.604,139.316 h -5.265 c -1.104,0 -2,-0.896 -2,-2 v -10.22 c 0,-0.69 0.158,-1.385 0.458,-2.009 0,-0.001 0,-0.002 10e-4,-0.002 l 3.497,-7.255 c 0.308,-0.638 0.929,-1.065 1.634,-1.125 0.707,-0.053 1.39,0.259 1.799,0.836 0.345,0.486 0.777,0.881 1.283,1.174 0.553,0.319 1.162,0.5 1.811,0.535 0.667,0.037 1.272,0.405 1.612,0.98 0.34,0.575 0.37,1.283 0.08,1.885 l -2.911,6.039 v 9.162 c 10e-4,1.104 -0.895,2 -1.999,2 z m -3.265,-4 h 1.265 v -7.619 c 0,-0.301 0.068,-0.598 0.198,-0.868 l 2.04,-4.232 c -0.283,-0.123 -0.56,-0.262 -0.831,-0.418 -0.097,-0.056 -0.193,-0.114 -0.287,-0.174 l -2.321,4.815 c -0.042,0.088 -0.063,0.181 -0.063,0.277 v 8.219 z"
       inkscape:connector-curvature="0"
       style="fill:#3762cc" />
    <path
       id="path296"
       d="M 49.591,83.995 H 27.737 c -0.769,0 -1.393,-0.624 -1.393,-1.393 V 77.026 C 26.343,66.518 34.861,58 45.369,58 h 10.143 c 2.885,0 5.225,2.339 5.225,5.225 v 9.624 c -0.001,6.156 -4.991,11.146 -11.146,11.146 z"
       inkscape:connector-curvature="0"
       style="fill:#4671c6" />
    <path
       id="path298"
       d="m 80.263,83.995 h -8.381 c -6.156,0 -11.146,-4.99 -11.146,-11.146 v -9.624 c 0,-2.885 2.339,-5.225 5.225,-5.225 8.668,0 15.696,7.027 15.696,15.696 v 8.906 c 0,0.769 -0.624,1.393 -1.394,1.393 z"
       inkscape:connector-curvature="0"
       style="fill:#4671c6" />
    <path
       id="path300"
       d="M 49.59,85.995 H 27.737 c -1.871,0 -3.394,-1.522 -3.394,-3.393 V 77.025 C 24.343,65.432 33.775,56 45.369,56 h 10.143 c 3.984,0 7.225,3.241 7.225,7.225 v 9.624 C 62.736,80.097 56.839,85.995 49.59,85.995 Z m -21.247,-4 H 49.59 c 5.043,0 9.146,-4.103 9.146,-9.146 V 63.225 C 58.736,61.447 57.289,60 55.511,60 H 45.369 c -9.388,0 -17.025,7.637 -17.025,17.025 v 4.97 z"
       inkscape:connector-curvature="0"
       style="fill:#3762cc" />
    <path
       id="path302"
       d="m 80.263,85.995 h -8.381 c -7.249,0 -13.146,-5.897 -13.146,-13.146 v -9.624 c 0,-3.984 3.241,-7.225 7.225,-7.225 9.757,0 17.696,7.938 17.696,17.696 v 8.906 c 0,1.871 -1.523,3.393 -3.394,3.393 z M 65.961,60 c -1.778,0 -3.225,1.447 -3.225,3.225 v 9.624 c 0,5.043 4.103,9.146 9.146,9.146 h 7.774 V 73.696 C 79.657,66.144 73.513,60 65.961,60 Z"
       inkscape:connector-curvature="0"
       style="fill:#3762cc" />
  </g>
</svg>
