<?xml version="1.0" encoding="UTF-8" standalone="no"?>
<!-- Generator: Adobe Illustrator 22.1.0, SVG Export Plug-In . SVG Version: 6.00 Build 0)  -->

<svg
   xmlns:dc="http://purl.org/dc/elements/1.1/"
   xmlns:cc="http://creativecommons.org/ns#"
   xmlns:rdf="http://www.w3.org/1999/02/22-rdf-syntax-ns#"
   xmlns:svg="http://www.w3.org/2000/svg"
   xmlns="http://www.w3.org/2000/svg"
   xmlns:sodipodi="http://sodipodi.sourceforge.net/DTD/sodipodi-0.dtd"
   xmlns:inkscape="http://www.inkscape.org/namespaces/inkscape"
   version="1.1"
   id="Layer_1_1_"
   x="0px"
   y="0px"
   viewBox="0 0 4.25 3.875"
   xml:space="preserve"
   width="34"
   height="31"
   sodipodi:docname="visualization.svg"
   inkscape:version="0.92.4 (5da689c313, 2019-01-14)"><metadata
   id="metadata14"><rdf:RDF><cc:Work
       rdf:about=""><dc:format>image/svg+xml</dc:format><dc:type
         rdf:resource="http://purl.org/dc/dcmitype/StillImage" /><dc:title></dc:title></cc:Work></rdf:RDF></metadata><defs
   id="defs12" /><sodipodi:namedview
   pagecolor="#ffffff"
   bordercolor="#666666"
   borderopacity="1"
   objecttolerance="10"
   gridtolerance="10"
   guidetolerance="10"
   inkscape:pageopacity="0"
   inkscape:pageshadow="2"
   inkscape:window-width="3840"
   inkscape:window-height="2081"
   id="namedview10"
   showgrid="false"
   inkscape:zoom="43.065084"
   inkscape:cx="9.0553981"
   inkscape:cy="10.428055"
   inkscape:window-x="-9"
   inkscape:window-y="-9"
   inkscape:window-maximized="1"
   inkscape:current-layer="Layer_1_1_" />
<linearGradient
   id="SVGID_1_"
   gradientUnits="userSpaceOnUse"
   x1="32"
   y1="1"
   x2="32"
   y2="63"
   gradientTransform="matrix(1,0,0,-1,0,64)">
	<stop
   offset="0"
   style="stop-color:#9F2FFF"
   id="stop2" />
	<stop
   offset="1"
   style="stop-color:#0BB1D3"
   id="stop4" />
</linearGradient>
<g
   id="g17"
   transform="matrix(0.06827309,0,0,0.0625,-0.05471824,-0.05936424)"><path
     id="path7"
     d="m 46.875,31 c -5.949,0 -11.631,2.841 -15.2,7.6 l -1.05,1.4 1.05,1.4 c 3.569,4.759 9.251,7.6 15.2,7.6 5.949,0 11.631,-2.841 15.2,-7.6 l 1.05,-1.4 -1.05,-1.4 C 58.506,33.841 52.824,31 46.875,31 Z m 7,9 c 0,3.86 -3.14,7 -7,7 -3.86,0 -7,-3.14 -7,-7 0,-3.86 3.14,-7 7,-7 3.86,0 7,3.14 7,7 z m -20.6,0.2 -0.15,-0.2 0.15,-0.2 c 1.688,-2.25 3.906,-4.015 6.406,-5.185 -1.129,1.504 -1.806,3.365 -1.806,5.385 0,2.02 0.677,3.881 1.806,5.384 -2.5,-1.169 -4.718,-2.934 -6.406,-5.184 z m 27.2,0 c -1.688,2.25 -3.906,4.015 -6.406,5.185 1.129,-1.504 1.806,-3.365 1.806,-5.385 0,-2.02 -0.677,-3.881 -1.806,-5.384 2.5,1.17 4.718,2.935 6.406,5.185 l 0.15,0.2 z m -13.6,4.8 c 2.757,0 5,-2.243 5,-5 0,-2.757 -2.243,-5 -5,-5 -2.757,0 -5,2.243 -5,5 0,2.757 2.243,5 5,5 z m 0,-8 c 1.654,0 3,1.346 3,3 0,1.654 -1.346,3 -3,3 -1.654,0 -3,-1.346 -3,-3 0,-1.654 1.346,-3 3,-3 z m -34,3.247 V 43 h -2 v 2 h 2 v 13 c 0,2.757 2.243,5 5,5 2.757,0 5,-2.243 5,-5 V 45 h 2 v -2 h -2 V 40.247 C 29.509,38.201 34.403,32.193 34.824,25 H 62.875 V 1 h -6 v 22 h -2 V 5 h -6 v 18 h -2 V 9 h -6 v 14 h -2 V 13 h -6 v 3.017 C 30.011,10.658 24.364,7 17.875,7 c -9.374,0 -17,7.626 -17,17 0,7.634 5.059,14.107 12,16.247 z M 58.875,3 h 2 v 20 h -2 z m -8,4 h 2 v 16 h -2 z m -8,4 h 2 v 12 h -2 z m -22,47 c 0,1.654 -1.346,3 -3,3 -1.654,0 -3,-1.346 -3,-3 V 45 h 6 z m 0,-15 h -6 v -2.281 c 0.976,0.175 1.975,0.281 3,0.281 1.025,0 2.024,-0.107 3,-0.281 z m 14,-28 h 2 v 8 h -2 z m -17,-6 c 8.271,0 15,6.729 15,15 0,8.271 -6.729,15 -15,15 -8.271,0 -15,-6.729 -15,-15 0,-8.271 6.729,-15 15,-15 z m 0,28 c 7.168,0 13,-5.832 13,-13 0,-7.168 -5.832,-13 -13,-13 -7.168,0 -13,5.832 -13,13 0,7.168 5.832,13 13,13 z m 0,-24 c 6.065,0 11,4.935 11,11 0,6.065 -4.935,11 -11,11 -6.065,0 -11,-4.935 -11,-11 0,-6.065 4.935,-11 11,-11 z m 1,12 h -2 v -2 h 2 z m 4,0 h -2 v -2 h 2 z m 4,0 h -2 v -2 h 2 z m -12,0 h -2 v -2 h 2 z m -4,0 h -2 v -2 h 2 z"
     style="fill:url(#SVGID_1_)"
     inkscape:connector-curvature="0" /></g>
</svg>